<mxfile host="app.diagrams.net" modified="2021-09-07T04:57:31.978Z" agent="5.0 (Windows NT 10.0; Win64; x64) AppleWebKit/537.36 (KHTML, like Gecko) Chrome/92.0.4515.159 Safari/537.36" etag="G1QnlYLNWYINFePs4B3a" version="15.0.6" type="github">
  <diagram id="f9PYaqPUCNv4eE4WrcOT" name="SqlSessionFactoryBuilder执行链">
    <mxGraphModel dx="1145" dy="619" grid="1" gridSize="10" guides="1" tooltips="1" connect="1" arrows="1" fold="1" page="1" pageScale="1" pageWidth="827" pageHeight="1169" math="0" shadow="0">
      <root>
        <mxCell id="0" />
        <mxCell id="1" parent="0" />
      </root>
    </mxGraphModel>
  </diagram>
</mxfile>
